{
.appVersion = "3151";
.formatVersion = 3;
DisplayStrings = (
OQ
);
classes = (
{
automatic = 1;
code = "A Aacute Abreve Acircumflex Adieresis Agrave Amacron Aogonek Aring Atilde AE B C Cacute Ccaron Ccedilla D Eth Dcaron Dcroat E Eacute Ecaron Ecircumflex Edieresis Edotaccent Egrave Emacron Eogonek F G Gcommaaccent H I IJ Iacute Icircumflex Idieresis Idotaccent Igrave Imacron Iogonek J Jacute K Kcommaaccent L Lacute Lcaron Lcommaaccent Lslash M N Nacute Ncaron Ncommaaccent Ntilde O Oacute Ocircumflex Odieresis Ograve Ohungarumlaut Omacron Oslash Otilde OE P Thorn Q R Racute Rcaron Rcommaaccent S Sacute Scaron Scedilla Germandbls T Tcaron Tcedilla U Uacute Ucircumflex Udieresis Ugrave Uhungarumlaut Umacron Uogonek Uring V W Wacute Wcircumflex Wdieresis Wgrave X Y Yacute Ycircumflex Ydieresis Ygrave Z Zacute Zcaron Zdotaccent D.ss01 Q.ss01 R.ss01";
name = Uppercase;
}
);
date = "2023-03-29 09:01:27 +0000";
familyName = Astrograph;
featurePrefixes = (
{
automatic = 1;
code = "languagesystem DFLT dflt;

languagesystem latn dflt;
languagesystem latn AZE;
languagesystem latn CRT;
languagesystem latn KAZ;
languagesystem latn TAT;
languagesystem latn TRK;
languagesystem latn NLD;
";
name = Languagesystems;
}
);
features = (
{
automatic = 1;
code = "feature locl;
feature ss01;
";
tag = aalt;
},
{
automatic = 1;
code = "lookup ccmp_Other_1 {
	@CombiningTopAccents = [acutecomb brevecomb caroncomb circumflexcomb commaturnedabovecomb dieresiscomb dotaccentcomb gravecomb hungarumlautcomb macroncomb ringcomb tildecomb];
	@CombiningNonTopAccents = [cedillacomb ogonekcomb];
	sub [i]' @CombiningTopAccents by [idotless];
	sub [i]' @CombiningNonTopAccents @CombiningTopAccents by [idotless];
} ccmp_Other_1;
";
tag = ccmp;
},
{
automatic = 1;
code = "lookup locl_latn_0 {
	script latn;
	language AZE;
	sub i by idotaccent;
	language CRT;
	sub i by idotaccent;
	language KAZ;
	sub i by idotaccent;
	language TAT;
	sub i by idotaccent;
	language TRK;
	sub i by idotaccent;
} locl_latn_0;


glyphs = (
{
glyphname = A;
kernLeft = A;
kernRight = A;
lastChange = "2023-03-31 05:05:51 +0000";
layers = (
{
anchors = (
{
name = bottom;
pos = (506,0);
},
{
name = bottom_2;
pos = (794,0);
},
{
name = top;
pos = (506,680);
}
);
layerId = m01;
shapes = (
{
closed = 1;
nodes = (
(219,0,ls),
(227,0,o),
(232,3,o),
(235,10,cs),
(504,551,l),
(460,524,l),
(554,524,l),
(510,551,l),
(778,10,ls),
(782,3,o),
(786,0,o),
(794,0,cs),
(952,0,ls),
(962,0,o),
(966,7,o),
(961,16,cs),
(637,670,ls),
(633,677,o),
(629,680,o),
(621,680,cs),
(393,680,ls),
(385,680,o),
(381,677,o),
(377,670,cs),
(52,16,ls),
(47,7,o),
(51,0,o),
(62,0,cs)
);
},
{
closed = 1;
nodes = (
(774,126,l),
(774,282,l),
(238,282,l),
(238,126,l)
);
}
);
width = 1013;
}
);
unicode = (65,97);
},
{
glyphname = AE;
kernLeft = A;
kernRight = E;
lastChange = "2023-03-30 15:12:28 +0000";
layers = (
{
layerId = m01;
shapes = (
{
closed = 1;
nodes = (
(225,0,ls),
(231,0,o),
(237,2,o),
(241,8,cs),
(631,550,l),
(580,533,l),
(1427,533,ls),
(1436,533,o),
(1441,538,o),
(1441,547,cs),
(1441,666,ls),
(1441,675,o),
(1436,680,o),
(1427,680,cs),
(512,680,ls),
(506,680,o),
(500,677,o),
(496,671,cs),
(53,16,ls),
(47,7,o),
(51,0,o),
(61,0,cs)
);
},
{
closed = 1;
nodes = (
(722,125,ls),
(731,125,o),
(735,130,o),
(735,139,cs),
(735,268,ls),
(735,277,o),
(731,282,o),
(722,282,cs),
(282,282,ls),
(273,282,o),
(268,277,o),
(268,268,cs),
(268,139,ls),
(268,130,o),
(273,125,o),
(282,125,cs)
);
},
{
closed = 1;
nodes = (
(848,-1,ls),
(856,-1,o),
(861,4,o),
(861,13,cs),
(861,666,ls),
(861,675,o),
(856,680,o),
(848,680,cs),
(705,680,ls),
(696,680,o),
(691,675,o),
(691,666,cs),
(691,13,ls),
(691,4,o),
(696,-1,o),
(705,-1,cs)
);
},
{
closed = 1;
nodes = (
(1427,0,ls),
(1436,0,o),
(1441,4,o),
(1441,13,cs),
(1441,132,ls),
(1441,141,o),
(1436,146,o),
(1427,146,cs),
(822,146,ls),
(813,146,o),
(808,141,o),
(808,132,cs),
(808,13,ls),
(808,4,o),
(813,0,o),
(822,0,cs)
);
},
{
closed = 1;
nodes = (
(1342,272,ls),
(1351,272,o),
(1356,276,o),
(1356,285,cs),
(1356,394,ls),
(1356,403,o),
(1351,408,o),
(1342,408,cs),
(822,408,ls),
(813,408,o),
(808,403,o),
(808,394,cs),
(808,285,ls),
(808,276,o),
(813,272,o),
(822,272,cs)
);
}
);
width = 1491;
}
);
unicode = (198,230);
},
{
glyphname = B;
lastChange = "2023-03-31 04:37:12 +0000";
layers = (
{
anchors = (
{
name = top;
pos = (417,680);
}
);
layerId = m01;
shapes = (
{
closed = 1;
nodes = (
(635,0,ls),
(781,0,o),
(837,48,o),
(837,173,cs),
(837,303,o),
(787,347,o),
(637,347,cs),
(94,347,l),
(94,273,l),
(608,273,ls),
(640,273,o),
(665,248,o),
(665,216,cs),
(665,183,o),
(640,156,o),
(608,156,cs),
(94,156,l),
(94,0,l)
);
},
{
closed = 1;
nodes = (
(220,0,l),
(220,680,l),
(64,680,ls),
(55,680,o),
(50,675,o),
(50,666,cs),
(50,14,ls),
(50,5,o),
(55,0,o),
(64,0,cs)
);
},
{
closed = 1;
nodes = (
(603,335,ls),
(753,335,o),
(803,377,o),
(803,503,cs),
(803,631,o),
(747,680,o),
(601,680,cs),
(94,680,l),
(94,524,l),
(572,524,ls),
(604,524,o),
(629,498,o),
(629,466,cs),
(629,433,o),
(604,409,o),
(572,409,cs),
(94,409,l),
(94,335,l)
);
}
);
width = 887;
}
);
unicode = (66,98);
},
{
glyphname = C;
kernLeft = O;
kernRight = O;
lastChange = "2023-03-31 04:37:12 +0000";
layers = (
{
anchors = (
{
name = bottom;
pos = (485,0);
},
{
name = top;
pos = (485,680);
}
);
layerId = m01;
shapes = (
{
closed = 1;
nodes = (
(920,469,ls),
(920,611,o),
(852,680,o),
(710,680,cs),
(261,680,ls),
(119,680,o),
(50,611,o),
(50,469,cs),
(50,211,ls),
(50,69,o),
(119,0,o),
(261,0,cs),
(710,0,ls),
(852,0,o),
(920,69,o),
(920,211,cs),
(920,238,ls),
(920,247,o),
(916,252,o),
(907,252,cs),
(764,252,ls),
(755,252,o),
(750,247,o),
(750,238,cs),
(750,211,ls),
(750,188,o),
(733,170,o),
(710,170,cs),
(261,170,ls),
(238,170,o),
(220,188,o),
(220,211,cs),
(220,469,ls),
(220,492,o),
(238,510,o),
(261,510,cs),
(710,510,ls),
(733,510,o),
(750,492,o),
(750,469,cs),
(750,442,ls),
(750,433,o),
(755,428,o),
(764,428,cs),
(907,428,ls),
(916,428,o),
(920,433,o),
(920,442,cs)
);
}
);
width = 970;
}
);
unicode = (67,99);
},
{
glyphname = D;
kernLeft = I;
kernRight = O;
lastChange = "2023-03-31 05:06:32 +0000";
layers = (
{
anchors = (
{
name = top;
pos = (475,680);
}
);
layerId = m01;
shapes = (
{
closed = 1;
nodes = (
(710,0,ls),
(852,0,o),
(920,69,o),
(920,211,cs),
(920,469,ls),
(920,611,o),
(852,680,o),
(710,680,cs),
(64,680,ls),
(55,680,o),
(50,675,o),
(50,666,cs),
(50,14,ls),
(50,5,o),
(55,0,o),
(64,0,cs)
);
},
{
closed = 1;
nodes = (
(220,541,l),
(189,510,l),
(710,510,ls),
(733,510,o),
(750,492,o),
(750,469,cs),
(750,211,ls),
(750,188,o),
(733,170,o),
(710,170,cs),
(189,170,l),
(220,139,l)
);
}
);
width = 970;
}
);
unicode = (68,100);
},
{
glyphname = D.ss01;
kernLeft = I;
kernRight = O;
lastChange = "2023-03-30 15:16:27 +0000";
layers = (
{
anchors = (
{
name = accent;
pos = (492,850);
}
);
layerId = m01;
shapes = (
{
closed = 1;
nodes = (
(731,0,ls),
(873,0,o),
(942,69,o),
(942,211,cs),
(942,469,ls),
(942,611,o),
(873,680,o),
(731,680,cs),
(64,680,ls),
(55,680,o),
(50,675,o),
(50,666,cs),
(50,524,ls),
(50,515,o),
(55,510,o),
(64,510,cs),
(731,510,ls),
(754,510,o),
(772,492,o),
(772,469,cs),
(772,211,ls),
(772,188,o),
(754,170,o),
(731,170,cs),
(64,170,ls),
(55,170,o),
(50,165,o),
(50,156,cs),
(50,14,ls),
(50,5,o),
(55,0,o),
(64,0,cs)
);
},
{
closed = 1;
nodes = (
(280,85,l),
(280,595,l),
(110,595,l),
(110,85,l)
);
}
);
width = 992;
}
);
},
{
glyphname = Eth;
lastChange = "2023-03-30 15:12:47 +0000";
layers = (
{
layerId = m01;
shapes = (
{
closed = 1;
nodes = (
(421,296,ls),
(430,296,o),
(435,301,o),
(435,309,cs),
(435,371,ls),
(435,379,o),
(430,384,o),
(421,384,cs),
(109,384,ls),
(100,384,o),
(95,379,o),
(95,371,cs),
(95,309,ls),
(95,301,o),
(100,296,o),
(109,296,cs)
);
},
{
pos = (125,0);
ref = D;
}
);
width = 1095;
}
);
unicode = (208,240);
},
{
glyphname = E;
kernLeft = E;
kernRight = E;
lastChange = "2023-03-31 05:00:50 +0000";
layers = (
{
anchors = (
{
name = bottom;
pos = (462,0);
},
{
name = top;
pos = (462,680);
}
);
layerId = m01;
shapes = (
{
closed = 1;
nodes = (
(851,0,ls),
(859,0,o),
(864,5,o),
(864,14,cs),
(864,133,ls),
(864,141,o),
(859,146,o),
(851,146,cs),
(189,146,l),
(220,116,l),
(220,564,l),
(189,534,l),
(851,534,ls),
(859,534,o),
(864,539,o),
(864,547,cs),
(864,666,ls),
(864,675,o),
(859,680,o),
(851,680,cs),
(64,680,ls),
(55,680,o),
(50,675,o),
(50,666,cs),
(50,14,ls),
(50,5,o),
(55,0,o),
(64,0,cs)
);
},
{
closed = 1;
nodes = (
(766,272,ls),
(774,272,o),
(779,277,o),
(779,286,cs),
(779,394,ls),
(779,403,o),
(774,408,o),
(766,408,cs),
(149,408,ls),
(140,408,o),
(135,403,o),
(135,394,cs),
(135,286,ls),
(135,277,o),
(140,272,o),
(149,272,cs)
);
}
);
width = 924;
}
);
unicode = (69,101);
},
{
glyphname = F;
kernLeft = E;
kernRight = F;
lastChange = "2023-03-31 04:37:12 +0000";
layers = (
{
anchors = (
{
name = top;
pos = (462,680);
}
);
layerId = m01;
shapes = (
{
closed = 1;
nodes = (
(206,0,ls),
(215,0,o),
(220,5,o),
(220,14,cs),
(220,564,l),
(189,534,l),
(861,534,ls),
(869,534,o),
(874,539,o),
(874,547,cs),
(874,666,ls),
(874,675,o),
(869,680,o),
(861,680,cs),
(64,680,ls),
(55,680,o),
(50,675,o),
(50,666,cs),
(50,14,ls),
(50,5,o),
(55,0,o),
(64,0,cs)
);
},
{
closed = 1;
nodes = (
(776,272,ls),
(784,272,o),
(789,277,o),
(789,286,cs),
(789,394,ls),
(789,403,o),
(784,408,o),
(776,408,cs),
(149,408,ls),
(140,408,o),
(135,403,o),
(135,394,cs),
(135,286,ls),
(135,277,o),
(140,272,o),
(149,272,cs)
);
}
);
width = 924;
}
);
unicode = (70,102);
},
{
glyphname = G;
kernLeft = O;
kernRight = O;
lastChange = "2023-03-31 05:04:55 +0000";
layers = (
{
anchors = (
{
name = bottom;
pos = (485,0);
},
{
name = top;
pos = (485,680);
}
);
layerId = m01;
shapes = (
{
closed = 1;
nodes = (
(710,0,ls),
(852,0,o),
(920,69,o),
(920,211,cs),
(920,367,ls),
(920,376,o),
(916,381,o),
(907,381,cs),
(489,381,ls),
(480,381,o),
(475,376,o),
(475,367,cs),
(475,258,ls),
(475,250,o),
(480,245,o),
(489,245,cs),
(781,245,l),
(750,275,l),
(750,211,ls),
(750,188,o),
(733,170,o),
(710,170,cs),
(261,170,ls),
(238,170,o),
(220,188,o),
(220,211,cs),
(220,469,ls),
(220,492,o),
(238,510,o),
(261,510,cs),
(710,510,ls),
(729,510,o),
(744,498,o),
(748,481,cs),
(751,473,o),
(755,469,o),
(763,469,cs),
(907,469,ls),
(916,469,o),
(920,474,o),
(920,483,cs),
(916,616,o),
(847,680,o),
(710,680,cs),
(261,680,ls),
(119,680,o),
(50,611,o),
(50,469,cs),
(50,211,ls),
(50,69,o),
(119,0,o),
(261,0,cs)
);
}
);
width = 970;
}
);
unicode = (71,103);
},
{
glyphname = H;
lastChange = "2023-03-31 04:37:12 +0000";
layers = (
{
anchors = (
{
name = top;
pos = (457,680);
}
);
layerId = m01;
shapes = (
{
closed = 1;
nodes = (
(849,-1,ls),
(858,-1,o),
(863,4,o),
(863,13,cs),
(863,666,ls),
(863,675,o),
(858,680,o),
(849,680,cs),
(706,680,ls),
(697,680,o),
(693,675,o),
(693,666,cs),
(693,13,ls),
(693,4,o),
(697,-1,o),
(706,-1,cs)
);
},
{
closed = 1;
nodes = (
(206,-1,ls),
(215,-1,o),
(220,4,o),
(220,13,cs),
(220,666,ls),
(220,675,o),
(215,680,o),
(206,680,cs),
(64,680,ls),
(55,680,o),
(50,675,o),
(50,666,cs),
(50,13,ls),
(50,4,o),
(55,-1,o),
(64,-1,cs)
);
},
{
closed = 1;
nodes = (
(764,261,ls),
(773,261,o),
(778,266,o),
(778,275,cs),
(778,404,ls),
(778,413,o),
(773,418,o),
(764,418,cs),
(149,418,ls),
(140,418,o),
(135,413,o),
(135,404,cs),
(135,275,ls),
(135,266,o),
(140,261,o),
(149,261,cs)
);
}
);
width = 913;
}
);
unicode = (72,104);
},
{
glyphname = I;
lastChange = "2023-03-31 04:37:12 +0000";
layers = (
{
anchors = (
{
name = bottom;
pos = (135,0);
},
{
name = top;
pos = (135,680);
}
);
layerId = m01;
shapes = (
{
closed = 1;
nodes = (
(206,0,ls),
(215,0,o),
(220,5,o),
(220,14,cs),
(220,666,ls),
(220,675,o),
(215,680,o),
(206,680,cs),
(64,680,ls),
(55,680,o),
(50,675,o),
(50,666,cs),
(50,14,ls),
(50,5,o),
(55,0,o),
(64,0,cs)
);
}
);
width = 270;
}
);
unicode = 73;
},
{
glyphname = IJ;
lastChange = "2023-03-30 15:12:28 +0000";
layers = (
{
layerId = m01;
shapes = (
{
closed = 1;
nodes = (
(746,-1,o),
(815,68,o),
(815,210,cs),
(815,666,ls),
(815,675,o),
(810,680,o),
(801,680,cs),
(659,680,ls),
(650,680,o),
(645,675,o),
(645,666,cs),
(645,210,ls),
(645,187,o),
(627,169,o),
(604,169,c),
(261,170,l),
(238,170,o),
(220,187,o),
(220,210,cs),
(220,217,o),
(215,224,o),
(206,224,cs),
(64,224,ls),
(55,224,o),
(50,219,o),
(50,210,cs),
(50,68,o),
(119,0,o),
(261,0,c),
(604,-1,l)
);
},
{
closed = 1;
nodes = (
(206,309,ls),
(215,309,o),
(220,314,o),
(220,323,cs),
(220,666,ls),
(220,675,o),
(215,680,o),
(206,680,cs),
(64,680,ls),
(55,680,o),
(50,675,o),
(50,666,cs),
(50,323,ls),
(50,314,o),
(55,309,o),
(64,309,cs)
);
}
);
width = 865;
}
);
unicode = (306,307);
},
{
glyphname = J;
kernLeft = J;
kernRight = O;
lastChange = "2023-03-31 04:37:12 +0000";
layers = (
{
anchors = (
{
name = top;
pos = (730,680);
}
);
layerId = m01;
shapes = (
{
closed = 1;
nodes = (
(746,-1,o),
(815,68,o),
(815,210,cs),
(815,666,ls),
(815,675,o),
(810,680,o),
(801,680,cs),
(659,680,ls),
(650,680,o),
(645,675,o),
(645,666,cs),
(645,210,ls),
(645,187,o),
(627,169,o),
(604,169,c),
(261,170,l),
(238,170,o),
(220,187,o),
(220,210,cs),
(220,278,ls),
(220,284,o),
(215,291,o),
(206,291,cs),
(64,291,ls),
(55,291,o),
(50,287,o),
(50,278,cs),
(50,210,ls),
(50,68,o),
(119,0,o),
(261,0,c),
(604,-1,l)
);
}
);
width = 865;
}
);
unicode = (74,106);
},
{
glyphname = K;
lastChange = "2023-03-31 04:37:12 +0000";
layers = (
{
anchors = (
{
name = bottom;
pos = (421,0);
},
{
name = top;
pos = (421,680);
}
);
layerId = m01;
shapes = (
{
closed = 1;
nodes = (
(829,0,ls),
(840,0,o),
(844,8,o),
(835,17,cs),
(453,411,ls),
(448,417,o),
(442,418,o),
(436,418,cs),
(149,418,ls),
(140,418,o),
(135,413,o),
(135,405,cs),
(135,275,ls),
(135,267,o),
(140,262,o),
(149,262,cs),
(410,262,l),
(358,284,l),
(627,7,ls),
(632,1,o),
(638,0,o),
(644,0,cs)
);
},
{
closed = 1;
nodes = (
(206,0,ls),
(215,0,o),
(220,5,o),
(220,14,cs),
(220,666,ls),
(220,675,o),
(215,680,o),
(206,680,cs),
(64,680,ls),
(55,680,o),
(50,675,o),
(50,666,cs),
(50,14,ls),
(50,5,o),
(55,0,o),
(64,0,cs)
);
},
{
closed = 1;
nodes = (
(466,290,o),
(473,289,o),
(479,296,cs),
(835,663,ls),
(844,672,o),
(840,680,o),
(829,680,cs),
(644,680,ls),
(638,680,o),
(632,679,o),
(627,673,cs),
(366,404,ls),
(360,397,o),
(361,391,o),
(367,385,cs),
(460,296,ls)
);
}
);
width = 890;
}
);
unicode = (75,107);
},
{
glyphname = L;
kernLeft = I;
kernRight = L;
lastChange = "2023-03-31 04:52:32 +0000";
layers = (
{
anchors = (
{
name = bottom;
pos = (368,0);
},
{
name = top;
pos = (135,680);
},
{
name = top_2;
pos = (390,360);
}
);
layerId = m01;
shapes = (
{
closed = 1;
nodes = (
(673,0,ls),
(682,0,o),
(686,5,o),
(686,14,cs),
(686,143,ls),
(686,152,o),
(682,156,o),
(673,156,cs),
(189,156,l),
(220,126,l),
(220,666,ls),
(220,675,o),
(215,680,o),
(206,680,cs),
(64,680,ls),
(55,680,o),
(50,675,o),
(50,666,cs),
(50,14,ls),
(50,5,o),
(55,0,o),
(64,0,cs)
);
}
);
width = 736;
}
);
unicode = (76,108);
},
{
glyphname = Lslash;
lastChange = "2023-03-30 15:12:51 +0000";
layers = (
{
layerId = m01;
shapes = (
{
pos = (125,0);
ref = L;
},
{
closed = 1;
nodes = (
(424,360,ls),
(431,363,o),
(435,368,o),
(435,376,cs),
(435,435,ls),
(435,445,o),
(429,450,o),
(419,446,cs),
(106,338,ls),
(99,335,o),
(95,330,o),
(95,322,cs),
(95,263,ls),
(95,253,o),
(101,248,o),
(111,252,cs)
);
}
);
width = 861;
}
);
unicode = (321,322);
},
{
glyphname = M;
lastChange = "2023-03-31 04:37:12 +0000";
layers = (
{
anchors = (
{
name = top;
pos = (602,680);
}
);
layerId = m01;
shapes = (
{
closed = 1;
nodes = (
(206,0,ls),
(215,0,o),
(220,5,o),
(220,14,cs),
(220,541,l),
(189,510,l),
(277,510,l),
(233,537,l),
(502,10,ls),
(506,3,o),
(510,0,o),
(518,0,cs),
(686,0,ls),
(694,0,o),
(699,3,o),
(702,10,cs),
(971,537,l),
(927,510,l),
(1015,510,l),
(984,541,l),
(984,14,ls),
(984,5,o),
(989,0,o),
(998,0,cs),
(1141,0,ls),
(1150,0,o),
(1154,5,o),
(1154,14,cs),
(1154,666,ls),
(1154,675,o),
(1150,680,o),
(1141,680,cs),
(864,680,ls),
(856,680,o),
(852,677,o),
(848,670,cs),
(589,160,l),
(616,160,l),
(356,670,ls),
(353,677,o),
(348,680,o),
(340,680,cs),
(64,680,ls),
(55,680,o),
(50,675,o),
(50,666,cs),
(50,14,ls),
(50,5,o),
(55,0,o),
(64,0,cs)
);
}
);
width = 1204;
}
);
unicode = (77,109);
},
{
glyphname = N;
lastChange = "2023-03-31 04:37:12 +0000";
layers = (
{
anchors = (
{
name = bottom;
pos = (494,0);
},
{
name = top;
pos = (494,680);
}
);
layerId = m01;
shapes = (
{
closed = 1;
nodes = (
(206,0,ls),
(215,0,o),
(220,5,o),
(220,14,cs),
(220,541,l),
(189,510,l),
(287,510,l),
(238,534,l),
(640,8,ls),
(644,3,o),
(650,0,o),
(657,0,cs),
(924,0,ls),
(933,0,o),
(937,5,o),
(937,14,cs),
(937,666,ls),
(937,675,o),
(933,680,o),
(924,680,cs),
(781,680,ls),
(772,680,o),
(767,675,o),
(767,666,cs),
(767,139,l),
(798,170,l),
(700,170,l),
(749,146,l),
(347,672,l),
(343,677,o),
(338,680,o),
(331,680,cs),
(64,680,ls),
(55,680,o),
(50,675,o),
(50,666,cs),
(50,14,ls),
(50,5,o),
(55,0,o),
(64,0,cs)
);
}
);
width = 987;
}
);
unicode = (78,110);
},
{
glyphname = O;
kernLeft = O;
kernRight = O;
lastChange = "2023-03-31 05:06:51 +0000";
layers = (
{
anchors = (
{
name = top;
pos = (485,680);
}
);
layerId = m01;
shapes = (
{
closed = 1;
nodes = (
(710,0,l),
(852,0,o),
(920,69,o),
(920,211,c),
(920,469,l),
(920,611,o),
(852,680,o),
(710,680,c),
(261,680,l),
(119,680,o),
(50,611,o),
(50,469,c),
(50,211,l),
(50,69,o),
(119,0,o),
(261,0,c)
);
},
{
closed = 1;
nodes = (
(238,170,o),
(220,188,o),
(220,211,c),
(220,469,l),
(220,492,o),
(238,510,o),
(261,510,c),
(710,510,l),
(733,510,o),
(750,492,o),
(750,469,c),
(750,211,l),
(750,188,o),
(733,170,o),
(710,170,c),
(261,170,l)
);
}
);
width = 970;
}
);
unicode = (79,111);
},
{
glyphname = Oslash;
lastChange = "2023-03-30 15:12:28 +0000";
layers = (
{
layerId = m01;
shapes = (
{
closed = 1;
nodes = (
(293,-85,ls),
(301,-85,o),
(307,-82,o),
(310,-75,cs),
(670,749,ls),
(674,759,o),
(670,765,o),
(659,765,cs),
(597,765,ls),
(589,765,o),
(583,762,o),
(580,755,cs),
(220,-69,ls),
(216,-79,o),
(221,-85,o),
(231,-85,cs)
);
},
{
ref = O;
}
);
width = 970;
}
);
unicode = (216,248);
},
{
glyphname = OE;
kernLeft = O;
kernRight = E;
lastChange = "2023-03-30 15:12:28 +0000";
layers = (
{
layerId = m01;
shapes = (
{
closed = 1;
nodes = (
(710,0,ls),
(852,0,o),
(920,69,o),
(920,211,cs),
(920,469,ls),
(920,611,o),
(852,680,o),
(710,680,cs),
(261,680,ls),
(119,680,o),
(50,611,o),
(50,469,cs),
(50,211,ls),
(50,69,o),
(119,0,o),
(261,0,cs)
);
},
{
closed = 1;
nodes = (
(238,170,o),
(220,188,o),
(220,211,cs),
(220,469,ls),
(220,492,o),
(238,510,o),
(261,510,cs),
(710,510,ls),
(733,510,o),
(750,492,o),
(750,469,cs),
(750,211,ls),
(750,188,o),
(733,170,o),
(710,170,cs),
(261,170,ls)
);
},
{
closed = 1;
nodes = (
(1510,0,ls),
(1519,0,o),
(1524,5,o),
(1524,14,cs),
(1524,133,ls),
(1524,141,o),
(1519,146,o),
(1510,146,cs),
(837,146,ls),
(828,146,o),
(823,141,o),
(823,133,cs),
(823,14,ls),
(823,5,o),
(828,0,o),
(837,0,cs)
);
},
{
closed = 1;
nodes = (
(1425,272,ls),
(1434,272,o),
(1439,277,o),
(1439,286,cs),
(1439,394,ls),
(1439,403,o),
(1434,408,o),
(1425,408,cs),
(905,408,ls),
(896,408,o),
(891,403,o),
(891,394,cs),
(891,286,ls),
(891,277,o),
(896,272,o),
(905,272,cs)
);
},
{
closed = 1;
nodes = (
(1510,534,ls),
(1519,534,o),
(1524,539,o),
(1524,547,cs),
(1524,666,ls),
(1524,675,o),
(1519,680,o),
(1510,680,cs),
(837,680,ls),
(828,680,o),
(823,675,o),
(823,666,cs),
(823,547,ls),
(823,539,o),
(828,534,o),
(837,534,cs)
);
}
);
width = 1574;
}
);
unicode = (338,339);
},
{
glyphname = P;
kernLeft = I;
kernRight = P;
lastChange = "2023-03-31 04:55:52 +0000";
layers = (
{
anchors = (
{
name = top;
pos = (440,680);
}
);
layerId = m01;
shapes = (
{
closed = 1;
nodes = (
(618,188,ls),
(760,188,o),
(829,257,o),
(829,399,cs),
(829,469,ls),
(829,611,o),
(760,680,o),
(618,680,cs),
(183,680,ls),
(174,680,o),
(169,675,o),
(169,666,cs),
(169,524,ls),
(169,515,o),
(174,510,o),
(183,510,cs),
(618,510,ls),
(641,510,o),
(659,492,o),
(659,469,cs),
(659,399,ls),
(659,376,o),
(641,358,o),
(618,358,cs),
(183,358,ls),
(174,358,o),
(169,354,o),
(169,345,cs),
(169,202,ls),
(169,193,o),
(174,188,o),
(183,188,cs)
);
},
{
closed = 1;
nodes = (
(206,0,ls),
(215,0,o),
(220,5,o),
(220,14,cs),
(220,666,ls),
(220,675,o),
(215,680,o),
(206,680,cs),
(64,680,ls),
(55,680,o),
(50,675,o),
(50,666,cs),
(50,14,ls),
(50,5,o),
(55,0,o),
(64,0,cs)
);
}
);
width = 879;
}
);
unicode = (80,112);
},
{
glyphname = Thorn;
lastChange = "2023-03-30 15:12:28 +0000";
layers = (
{
layerId = m01;
shapes = (
{
closed = 1;
nodes = (
(618,112,ls),
(760,112,o),
(829,180,o),
(829,322,cs),
(829,358,ls),
(829,500,o),
(760,568,o),
(618,568,cs),
(183,568,ls),
(174,568,o),
(169,564,o),
(169,555,cs),
(169,412,ls),
(169,404,o),
(174,398,o),
(183,398,cs),
(618,398,ls),
(641,398,o),
(659,381,o),
(659,358,cs),
(659,322,ls),
(659,299,o),
(641,282,o),
(618,282,cs),
(183,282,ls),
(174,282,o),
(169,277,o),
(169,268,cs),
(169,125,ls),
(169,116,o),
(174,112,o),
(183,112,cs)
);
},
{
closed = 1;
nodes = (
(206,0,ls),
(215,0,o),
(220,5,o),
(220,14,cs),
(220,666,ls),
(220,675,o),
(215,680,o),
(206,680,cs),
(64,680,ls),
(55,680,o),
(50,675,o),
(50,666,cs),
(50,14,ls),
(50,5,o),
(55,0,o),
(64,0,cs)
);
}
);
width = 879;
}
);
unicode = (222,254);
},
{
glyphname = Q;
kernLeft = O;
kernRight = O;
lastChange = "2023-03-31 05:15:38 +0000";
layers = (
{
anchors = (
{
name = top;
pos = (485,654);
}
);
layerId = m01;
shapes = (
{
closed = 1;
nodes = (
(867,-62,o),
(874,-62,o),
(880,-56,cs),
(981,44,ls),
(988,50,o),
(988,58,o),
(981,64,cs),
(851,190,l),
(731,74,l),
(861,-56,ls)
);
},
{
closed = 1;
nodes = (
(710,0,l),
(852,0,o),
(920,69,o),
(920,211,c),
(920,469,l),
(920,611,o),
(852,680,o),
(710,680,c),
(261,680,l),
(119,680,o),
(50,611,o),
(50,469,c),
(50,211,l),
(50,69,o),
(119,0,o),
(261,0,c)
);
},
{
closed = 1;
nodes = (
(238,170,o),
(220,188,o),
(220,211,c),
(220,469,l),
(220,492,o),
(238,510,o),
(261,510,c),
(710,510,l),
(733,510,o),
(750,492,o),
(750,469,c),
(750,211,l),
(750,188,o),
(733,170,o),
(710,170,c),
(261,170,l)
);
}
);
width = 996;
}
);
unicode = (81,113);
},
{
glyphname = Q.ss01;
kernLeft = O;
kernRight = O;
lastChange = "2023-03-31 05:14:28 +0000";
layers = (
{
layerId = m01;
shapes = (
{
closed = 1;
nodes = (
(710,0,ls),
(852,0,o),
(920,69,o),
(920,211,cs),
(920,469,ls),
(920,611,o),
(852,680,o),
(710,680,cs),
(261,680,ls),
(119,680,o),
(50,611,o),
(50,469,cs),
(50,211,ls),
(50,69,o),
(119,0,o),
(261,0,cs)
);
},
{
closed = 1;
nodes = (
(238,170,o),
(220,188,o),
(220,211,cs),
(220,469,ls),
(220,492,o),
(238,510,o),
(261,510,cs),
(710,510,ls),
(733,510,o),
(750,492,o),
(750,469,cs),
(750,211,ls),
(750,188,o),
(733,170,o),
(710,170,cs),
(261,170,ls)
);
},
{
closed = 1;
nodes = (
(540,-76,ls),
(540,-85,o),
(545,-90,o),
(554,-90,cs),
(696,-90,ls),
(705,-90,o),
(710,-85,o),
(710,-76,cs),
(710,66,ls),
(710,75,o),
(705,80,o),
(696,80,cs),
(554,80,ls),
(545,80,o),
(540,75,o),
(540,66,cs)
);
}
);
width = 970;
},
{
associatedMasterId = m01;
layerId = "9AE7713A-2A49-4848-8A89-D9C6295BED77";
name = "Mar 29, 23 at 12:08";
shapes = (
{
attr = {
identifier = ID0x1648d9ed0;
strokeWidth = 250;
};
closed = 0;
nodes = (
(1248,-25,l),
(1097,64,ls),
(1023,108,o),
(960,125,o),
(874,125,cs),
(393,125,ls),
(240,125,o),
(189,176,o),
(189,329,cs),
(189,671,ls),
(189,824,o),
(240,875,o),
(393,875,cs),
(985,875,ls),
(1138,875,o),
(1189,824,o),
(1189,671,cs),
(1189,399,ls),
(1189,308,o),
(1186,285,o),
(1160,238,c)
);
}
);
width = 1378;
}
);
},
{
glyphname = R;
kernLeft = I;
kernRight = R;
lastChange = "2023-03-31 04:59:19 +0000";
layers = (
{
anchors = (
{
name = bottom;
pos = (445,0);
},
{
name = top;
pos = (445,680);
}
);
guides = (
{
pos = (1003,526);
}
);
layerId = m01;
shapes = (
{
closed = 1;
nodes = (
(644,284,ls),
(794,284,o),
(844,326,o),
(844,452,cs),
(844,503,ls),
(844,631,o),
(788,680,o),
(642,680,cs),
(149,680,ls),
(140,680,o),
(135,675,o),
(135,666,cs),
(135,537,ls),
(135,528,o),
(140,524,o),
(149,524,cs),
(616,524,ls),
(648,524,o),
(674,498,o),
(674,466,cs),
(674,415,ls),
(674,383,o),
(648,358,o),
(616,358,cs),
(149,358,ls),
(140,358,o),
(135,353,o),
(135,344,cs),
(135,284,l)
);
},
{
closed = 1;
nodes = (
(206,0,ls),
(215,0,o),
(220,5,o),
(220,14,cs),
(220,666,ls),
(220,675,o),
(215,680,o),
(206,680,cs),
(64,680,ls),
(55,680,o),
(50,675,o),
(50,666,cs),
(50,14,ls),
(50,5,o),
(55,0,o),
(64,0,cs)
);
},
{
closed = 1;
nodes = (
(826,0,ls),
(835,0,o),
(839,5,o),
(839,14,cs),
(839,162,ls),
(839,278,o),
(748,307,o),
(598,307,cs),
(135,307,l),
(135,235,ls),
(135,226,o),
(140,222,o),
(149,222,cs),
(598,222,ls),
(651,222,o),
(669,207,o),
(669,162,cs),
(669,14,ls),
(669,5,o),
(674,0,o),
(682,0,cs)
);
}
);
width = 894;
}
);
unicode = (82,114);
},
{
glyphname = R.ss01;
kernLeft = I;
kernRight = R;
lastChange = "2023-03-30 15:12:28 +0000";
layers = (
{
layerId = m01;
shapes = (
{
closed = 1;
nodes = (
(760,188,o),
(829,257,o),
(829,399,cs),
(829,469,ls),
(829,611,o),
(760,680,o),
(618,680,cs),
(183,680,ls),
(174,680,o),
(169,675,o),
(169,666,cs),
(169,524,ls),
(169,515,o),
(174,510,o),
(183,510,cs),
(618,510,ls),
(641,510,o),
(659,492,o),
(659,469,cs),
(659,399,ls),
(659,376,o),
(641,358,o),
(618,358,cs),
(183,358,ls),
(174,358,o),
(169,354,o),
(169,345,cs),
(169,202,ls),
(169,193,o),
(174,188,o),
(183,188,cs),
(618,188,ls)
);
},
{
closed = 1;
nodes = (
(215,0,o),
(220,5,o),
(220,14,cs),
(220,666,ls),
(220,675,o),
(215,680,o),
(206,680,cs),
(64,680,ls),
(55,680,o),
(50,675,o),
(50,666,cs),
(50,14,ls),
(50,5,o),
(55,0,o),
(64,0,cs),
(206,0,ls)
);
},
{
closed = 1;
nodes = (
(825,1,ls),
(836,1,o),
(840,8,o),
(834,17,cs),
(674,261,ls),
(669,267,o),
(664,270,o),
(657,270,cs),
(494,272,ls),
(483,272,o),
(479,265,o),
(485,256,cs),
(642,9,ls),
(646,2,o),
(651,0,o),
(659,0,cs)
);
}
);
width = 887;
}
);
},
{
glyphname = S;
kernLeft = O;
kernRight = O;
lastChange = "2023-03-31 04:37:12 +0000";
layers = (
{
anchors = (
{
name = bottom;
pos = (475,0);
},
{
name = top;
pos = (475,680);
}
);
layerId = m01;
shapes = (
{
closed = 1;
nodes = (
(713,0,ls),
(820,0,o),
(900,44,o),
(900,180,cs),
(900,219,ls),
(900,326,o),
(825,401,o),
(720,406,cs),
(249,430,ls),
(227,432,o),
(220,443,o),
(220,475,cs),
(220,492,ls),
(220,515,o),
(225,524,o),
(242,524,cs),
(694,524,ls),
(711,524,o),
(716,515,o),
(716,492,cs),
(716,483,ls),
(716,474,o),
(721,469,o),
(730,469,cs),
(873,469,ls),
(882,469,o),
(886,474,o),
(886,483,cs),
(886,500,ls),
(886,637,o),
(805,680,o),
(699,680,cs),
(237,680,ls),
(132,680,o),
(50,638,o),
(50,500,cs),
(50,461,ls),
(50,354,o),
(125,279,o),
(230,274,cs),
(701,250,ls),
(723,248,o),
(730,237,o),
(730,205,cs),
(730,188,ls),
(730,165,o),
(725,156,o),
(708,156,cs),
(256,156,ls),
(239,156,o),
(234,165,o),
(234,188,cs),
(234,197,ls),
(234,206,o),
(229,211,o),
(220,211,cs),
(77,211,ls),
(68,211,o),
(64,206,o),
(64,197,cs),
(64,180,ls),
(64,44,o),
(146,0,o),
(251,0,cs)
);
}
);
width = 950;
},
{
associatedMasterId = m01;
layerId = "A5D2192D-09E8-4512-9741-3856DFF71263";
name = "Mar 29, 23 at 12:03";
shapes = (
{
attr = {
strokeHeight = 230;
strokeWidth = 250;
};
closed = 0;
nodes = (
(1169,690,l),
(1169,735,ls),
(1169,848,o),
(1132,885,o),
(1019,885,cs),
(339,885,ls),
(227,885,o),
(189,848,o),
(189,735,cs),
(189,678,ls),
(189,585,o),
(246,523,o),
(336,518,cs),
(1042,482,ls),
(1132,477,o),
(1189,415,o),
(1189,322,cs),
(1189,265,ls),
(1189,153,o),
(1152,115,o),
(1039,115,cs),
(359,115,ls),
(247,115,o),
(209,153,o),
(209,265,cs),
(209,310,l)
);
}
);
width = 1378;
}
);
unicode = (83,115);
},
{
glyphname = Germandbls;
lastChange = "2023-03-31 05:21:22 +0000";
layers = (
{
layerId = m01;
shapes = (
{
closed = 1;
nodes = (
(50,5,o),
(55,0,o),
(64,0,cs),
(206,0,ls),
(215,0,o),
(220,5,o),
(220,14,cs),
(220,469,ls),
(220,492,o),
(238,510,o),
(261,510,cs),
(476,510,l),
(459,549,l),
(371,381,o),
(469,268,o),
(613,257,cs),
(701,250,ls),
(720,248,o),
(730,237,o),
(730,218,cs),
(730,188,ls),
(730,167,o),
(718,156,o),
(694,156,cs),
(391,156,ls),
(382,156,o),
(377,152,o),
(377,143,cs),
(377,14,ls),
(377,5,o),
(382,0,o),
(391,0,cs),
(713,0,ls),
(820,0,o),
(900,44,o),
(900,180,cs),
(900,219,ls),
(900,326,o),
(825,399,o),
(720,406,cs),
(633,412,ls),
(603,414,o),
(593,438,o),
(606,470,cs),
(687,665,ls),
(691,675,o),
(687,681,o),
(677,681,cs),
(261,680,ls),
(119,680,o),
(50,611,o),
(50,469,cs),
(50,14,ls)
);
}
);
width = 950;
}
);
unicode = (7838,223);
},
{
glyphname = T;
kernLeft = T;
kernRight = T;
lastChange = "2023-03-31 04:37:12 +0000";
layers = (
{
anchors = (
{
name = bottom;
pos = (459,0);
},
{
name = top;
pos = (459,680);
}
);
layerId = m01;
shapes = (
{
closed = 1;
nodes = (
(853,524,ls),
(862,524,o),
(867,528,o),
(867,537,cs),
(867,666,ls),
(867,675,o),
(862,680,o),
(853,680,cs),
(64,680,ls),
(55,680,o),
(50,675,o),
(50,666,cs),
(50,537,ls),
(50,528,o),
(55,524,o),
(64,524,cs)
);
},
{
closed = 1;
nodes = (
(530,0,ls),
(539,0,o),
(544,5,o),
(544,14,cs),
(544,588,ls),
(544,597,o),
(539,602,o),
(530,602,cs),
(387,602,ls),
(378,602,o),
(374,597,o),
(374,588,cs),
(374,14,ls),
(374,5,o),
(378,0,o),
(387,0,cs)
);
}
);
width = 917;
}
);
unicode = (84,116);
},
{
glyphname = U;
kernLeft = O;
kernRight = O;
lastChange = "2023-03-31 04:37:12 +0000";
layers = (
{
anchors = (
{
name = bottom;
pos = (475,0);
},
{
name = bottom_2;
pos = (690,0);
},
{
name = top;
pos = (475,680);
}
);
layerId = m01;
shapes = (
{
closed = 1;
nodes = (
(690,0,ls),
(836,0,o),
(900,64,o),
(900,210,cs),
(900,666,ls),
(900,675,o),
(895,680,o),
(886,680,cs),
(744,680,ls),
(735,680,o),
(730,675,o),
(730,666,cs),
(730,218,ls),
(730,182,o),
(718,170,o),
(682,170,cs),
(268,170,ls),
(232,170,o),
(220,182,o),
(220,218,cs),
(220,666,ls),
(220,675,o),
(215,680,o),
(206,680,cs),
(64,680,ls),
(55,680,o),
(50,675,o),
(50,666,cs),
(50,210,ls),
(50,64,o),
(114,0,o),
(260,0,cs)
);
}
);
width = 950;
},
{
associatedMasterId = m01;
layerId = "63BE094B-5FA3-43C7-8B8E-D8ECC284FFB6";
name = "Mar 29, 23 at 12:05";
shapes = (
{
attr = {
strokeWidth = 250;
};
closed = 0;
nodes = (
(189,1000,l),
(189,309,ls),
(189,203,o),
(267,125,o),
(373,125,cs),
(1005,125,ls),
(1111,125,o),
(1189,203,o),
(1189,309,cs),
(1189,1000,l)
);
}
);
width = 1378;
}
);
unicode = (85,117);
},
{
glyphname = V;
kernLeft = V;
kernRight = V;
lastChange = "2023-03-31 05:04:37 +0000";
layers = (
{
anchors = (
{
name = top;
pos = (487,680);
}
);
layerId = m01;
shapes = (
{
closed = 1;
nodes = (
(601,0,ls),
(609,0,o),
(613,3,o),
(617,10,cs),
(941,664,ls),
(946,673,o),
(942,680,o),
(932,680,cs),
(774,680,ls),
(766,680,o),
(762,677,o),
(758,670,cs),
(490,129,l),
(534,156,l),
(440,156,l),
(484,129,l),
(215,670,ls),
(212,677,o),
(207,680,o),
(199,680,cs),
(42,680,ls),
(31,680,o),
(27,673,o),
(32,664,cs),
(357,10,ls),
(361,3,o),
(365,0,o),
(373,0,cs)
);
}
);
width = 973;
},
{
associatedMasterId = m01;
layerId = "48C42587-B266-437A-9BF1-00DFA7BAABD6";
name = "Mar 29, 23 at 12:06";
shapes = (
{
attr = {
lineCapEnd = "4";
lineCapStart = "4";
strokeHeight = 230;
strokeWidth = 250;
};
closed = 0;
nodes = (
(1256,1000,l),
(817,115,l),
(609,115,l),
(169,1000,l)
);
}
);
width = 1425;
}
);
unicode = (86,118);
},
{
glyphname = W;
kernLeft = V;
kernRight = V;
lastChange = "2023-03-31 04:37:12 +0000";
layers = (
{
anchors = (
{
name = top;
pos = (742,680);
}
);
layerId = m01;
shapes = (
{
closed = 1;
nodes = (
(285,11,ls),
(288,3,o),
(294,0,o),
(301,0,cs),
(553,0,ls),
(560,0,o),
(566,3,o),
(568,11,cs),
(753,528,l),
(732,528,l),
(916,11,ls),
(918,3,o),
(924,0,o),
(931,0,cs),
(1184,0,ls),
(1191,0,o),
(1197,3,o),
(1199,11,cs),
(1433,664,ls),
(1437,674,o),
(1432,680,o),
(1422,680,cs),
(1260,680,ls),
(1252,680,o),
(1247,677,o),
(1244,669,cs),
(1061,156,l),
(1042,156,l),
(864,670,ls),
(861,677,o),
(856,681,o),
(848,681,cs),
(642,681,ls),
(635,681,o),
(629,677,o),
(627,670,cs),
(443,156,l),
(424,156,l),
(241,669,ls),
(238,677,o),
(232,680,o),
(225,680,cs),
(62,680,ls),
(53,680,o),
(48,674,o),
(51,664,cs)
);
}
);
width = 1484;
},
{
associatedMasterId = m01;
layerId = "24222D89-8AEB-4403-B397-CC57AFF698B2";
name = "Mar 29, 23 at 12:06";
shapes = (
{
attr = {
lineCapEnd = "4";
lineCapStart = "4";
strokeHeight = 230;
strokeWidth = 250;
};
closed = 0;
nodes = (
(2025,1000,l),
(1579,0,l)
);
},
{
attr = {
strokeWidth = 215;
};
closed = 0;
nodes = (
(1576,107,l),
(1433,107,l),
(1153,893,l),
(1038,893,l),
(758,107,l),
(615,107,l)
);
},
{
attr = {
lineCapEnd = "4";
lineCapStart = "4";
strokeHeight = 230;
strokeWidth = 250;
};
closed = 0;
nodes = (
(167,1000,l),
(613,0,l)
);
}
);
width = 2192;
}
);
unicode = (87,119);
},
{
glyphname = X;
lastChange = "2023-03-31 04:37:12 +0000";
layers = (
{
anchors = (
{
name = top;
pos = (503,680);
}
);
layerId = m01;
shapes = (
{
closed = 1;
nodes = (
(945,0,ls),
(957,0,o),
(961,8,o),
(953,17,cs),
(652,340,l),
(953,663,ls),
(961,672,o),
(957,680,o),
(945,680,cs),
(765,680,ls),
(758,680,o),
(753,677,o),
(748,673,cs),
(439,340,l),
(748,7,ls),
(753,3,o),
(758,0,o),
(765,0,cs)
);
},
{
closed = 1;
nodes = (
(242,0,ls),
(248,0,o),
(254,3,o),
(259,7,cs),
(568,340,l),
(259,673,ls),
(254,677,o),
(248,680,o),
(242,680,cs),
(61,680,ls),
(50,680,o),
(46,672,o),
(54,663,cs),
(355,340,l),
(54,17,ls),
(46,8,o),
(50,0,o),
(61,0,cs)
);
},
{
closed = 1;
nodes = (
(580,262,ls),
(589,262,o),
(594,267,o),
(594,275,cs),
(594,405,ls),
(594,413,o),
(589,418,o),
(580,418,cs),
(427,418,ls),
(418,418,o),
(413,413,o),
(413,405,cs),
(413,275,ls),
(413,267,o),
(418,262,o),
(427,262,cs)
);
}
);
width = 1007;
},
{
associatedMasterId = m01;
layerId = "41632FD3-C8EA-4964-9443-BC4810DFE50A";
name = "Mar 29, 23 at 12:06";
shapes = (
{
attr = {
lineCapEnd = "4";
lineCapStart = "4";
strokeWidth = 230;
};
closed = 0;
nodes = (
(221,1000,l),
(686,500,l),
(221,0,l)
);
},
{
attr = {
lineCapEnd = "4";
lineCapStart = "4";
strokeWidth = 230;
};
closed = 0;
nodes = (
(1275,1000,l),
(810,500,l),
(1275,0,l)
);
},
{
attr = {
strokeWidth = 230;
};
closed = 0;
nodes = (
(686,500,l),
(810,500,l)
);
}
);
width = 1496;
}
);
unicode = (88,120);
},
{
glyphname = Y;
kernLeft = Y;
kernRight = Y;
lastChange = "2023-03-31 05:06:49 +0000";
layers = (
{
anchors = (
{
name = top;
pos = (483,680);
}
);
layerId = m01;
shapes = (
{
closed = 1;
nodes = (
(479,162,o),
(486,162,o),
(492,169,cs),
(911,663,ls),
(918,672,o),
(915,680,o),
(903,680,cs),
(730,680,ls),
(723,680,o),
(718,678,o),
(713,673,cs),
(463,376,l),
(502,376,l),
(252,673,ls),
(247,678,o),
(242,680,o),
(235,680,cs),
(62,680,ls),
(50,680,o),
(47,672,o),
(54,663,cs),
(473,169,ls)
);
},
{
closed = 1;
nodes = (
(554,0,ls),
(563,0,o),
(568,5,o),
(568,14,cs),
(568,265,ls),
(568,273,o),
(563,278,o),
(554,278,cs),
(411,278,ls),
(402,278,o),
(398,273,o),
(398,265,cs),
(398,14,ls),
(398,5,o),
(402,0,o),
(411,0,cs)
);
}
);
width = 965;
},
{
associatedMasterId = m01;
layerId = "4D4AABA5-58AB-4C2A-B827-4CAA8EA21320";
name = "Mar 29, 23 at 12:06";
shapes = (
{
attr = {
lineCapEnd = "4";
lineCapStart = "4";
strokeWidth = 230;
};
closed = 0;
nodes = (
(1215,1000,l),
(715,409,l),
(215,1000,l)
);
},
{
attr = {
strokeWidth = 250;
};
closed = 0;
nodes = (
(715,409,l),
(715,0,l)
);
}
);
width = 1430;
}
);
unicode = (89,121);
},
{
glyphname = Z;
lastChange = "2023-03-31 05:16:11 +0000";
layers = (
{
anchors = (
{
name = top;
pos = (474,680);
}
);
layerId = m01;
shapes = (
{
closed = 1;
nodes = (
(854,0,ls),
(863,0,o),
(867,5,o),
(867,14,cs),
(867,143,ls),
(867,152,o),
(863,156,o),
(854,156,cs),
(220,156,l),
(220,80,l),
(860,515,ls),
(866,520,o),
(869,525,o),
(869,532,cs),
(869,666,ls),
(869,675,o),
(864,680,o),
(855,680,cs),
(65,680,ls),
(56,680,o),
(51,675,o),
(51,666,cs),
(51,537,ls),
(51,528,o),
(56,524,o),
(65,524,cs),
(699,524,l),
(699,600,l),
(59,165,ls),
(53,160,o),
(50,155,o),
(50,148,cs),
(50,14,ls),
(50,5,o),
(55,0,o),
(64,0,cs)
);
}
);
width = 919;
},
{
anchors = (
{
name = accent;
pos = (688,1250);
}
);
associatedMasterId = m01;
layerId = "797CAC0E-1EEB-4EDE-B26D-F1CBA909AB2D";
name = "Mar 29, 23 at 12:08";
shapes = (
{
attr = {
lineCapEnd = 4;
lineCapStart = 4;
strokeHeight = 230;
strokeWidth = 250;
};
closed = 0;
nodes = (
(66,885,l),
(1143,885,l),
(1143,825,l),
(189,175,l),
(189,115,l),
(1266,115,l)
);
}
);
width = 1332;
}
);
unicode = (90,122);
},
{
export = 0;
glyphname = I.ss01;
lastChange = "2023-03-30 15:18:34 +0000";
layers = (
{
anchors = (
{
name = bottom;
pos = (225,0);
},
{
name = top;
pos = (225,680);
}
);
layerId = m01;
shapes = (
{
closed = 1;
nodes = (
(296,0,ls),
(305,0,o),
(310,5,o),
(310,14,cs),
(310,666,ls),
(310,675,o),
(305,680,o),
(296,680,cs),
(154,680,ls),
(145,680,o),
(140,675,o),
(140,666,cs),
(140,14,ls),
(140,5,o),
(145,0,o),
(154,0,cs)
);
},
{
closed = 1;
nodes = (
(400,666,ls),
(400,675,o),
(395,680,o),
(386,680,cs),
(64,680,ls),
(55,680,o),
(50,675,o),
(50,666,cs),
(50,544,ls),
(50,535,o),
(55,530,o),
(64,530,cs),
(386,530,ls),
(395,530,o),
(400,535,o),
(400,544,cs)
);
},
{
closed = 1;
nodes = (
(400,136,ls),
(400,145,o),
(395,150,o),
(386,150,cs),
(64,150,ls),
(55,150,o),
(50,145,o),
(50,136,cs),
(50,14,ls),
(50,5,o),
(55,0,o),
(64,0,cs),
(386,0,ls),
(395,0,o),
(400,5,o),
(400,14,cs)
);
}
);
width = 450;
}
);
},
{
glyphname = zero;
kernLeft = O;
kernRight = O;
lastChange = "2023-03-30 15:12:28 +0000";
layers = (
{
layerId = m01;
shapes = (
{
closed = 1;
nodes = (
(642,0,l),
(784,0,o),
(852,69,o),
(852,211,c),
(852,469,l),
(852,611,o),
(784,680,o),
(642,680,c),
(261,680,l),
(119,680,o),
(50,611,o),
(50,469,c),
(50,211,l),
(50,69,o),
(119,0,o),
(261,0,c)
);
},
{
closed = 1;
nodes = (
(238,170,o),
(220,188,o),
(220,211,c),
(220,469,l),
(220,492,o),
(238,510,o),
(261,510,c),
(642,510,l),
(665,510,o),
(682,492,o),
(682,469,c),
(682,211,l),
(682,188,o),
(665,170,o),
(642,170,c),
(261,170,l)
);
}
);
width = 902;
}
);
unicode = 48;
},
{
glyphname = one;
kernLeft = "1";
kernRight = "1";
lastChange = "2023-03-30 15:12:28 +0000";
layers = (
{
layerId = m01;
shapes = (
{
closed = 1;
nodes = (
(300,0,ls),
(308,0,o),
(313,5,o),
(313,14,cs),
(313,666,ls),
(313,675,o),
(308,680,o),
(300,680,cs),
(102,680,ls),
(95,680,o),
(89,677,o),
(87,668,cs),
(51,543,ls),
(48,533,o),
(55,524,o),
(66,524,cs),
(174,524,l),
(143,554,l),
(143,14,ls),
(143,5,o),
(148,0,o),
(157,0,cs)
);
}
);
width = 363;
}
);
unicode = 49;
},
{
glyphname = two;
kernLeft = O;
kernRight = R;
lastChange = "2023-03-30 15:12:28 +0000";
layers = (
{
layerId = m01;
shapes = (
{
closed = 1;
nodes = (
(811,0,ls),
(820,0,o),
(825,5,o),
(825,14,cs),
(825,143,ls),
(825,152,o),
(820,156,o),
(811,156,cs),
(220,156,l),
(220,171,ls),
(220,209,o),
(230,224,o),
(268,229,cs),
(660,286,ls),
(779,304,o),
(832,361,o),
(832,471,cs),
(832,500,ls),
(832,638,o),
(750,680,o),
(645,680,cs),
(241,680,ls),
(133,680,o),
(64,631,o),
(64,509,cs),
(64,483,ls),
(64,474,o),
(68,469,o),
(77,469,cs),
(220,469,ls),
(229,469,o),
(234,474,o),
(234,483,cs),
(234,494,ls),
(234,516,o),
(240,524,o),
(260,524,cs),
(622,524,ls),
(644,524,o),
(662,504,o),
(662,478,cs),
(662,441,o),
(652,427,o),
(620,423,cs),
(237,371,ls),
(130,357,o),
(50,270,o),
(50,171,cs),
(50,14,ls),
(50,5,o),
(55,0,o),
(64,0,cs)
);
}
);
width = 882;
}
);
unicode = 50;
},
{
glyphname = three;
kernLeft = O;
kernRight = O;
lastChange = "2023-03-30 15:12:28 +0000";
layers = (
{
layerId = m01;
shapes = (
{
closed = 1;
nodes = (
(622,0,ls),
(767,0,o),
(823,48,o),
(823,173,cs),
(823,303,o),
(774,347,o),
(623,347,cs),
(344,347,l),
(344,286,ls),
(344,278,o),
(349,273,o),
(357,273,cs),
(594,273,ls),
(627,273,o),
(652,248,o),
(652,216,cs),
(652,183,o),
(627,156,o),
(594,156,cs),
(230,156,ls),
(213,156,o),
(206,163,o),
(206,180,cs),
(206,197,ls),
(206,206,o),
(202,211,o),
(193,211,cs),
(64,211,ls),
(55,211,o),
(50,206,o),
(50,197,cs),
(50,164,ls),
(50,54,o),
(104,0,o),
(214,0,cs)
);
},
{
closed = 1;
nodes = (
(603,335,ls),
(753,335,o),
(803,377,o),
(803,503,cs),
(803,631,o),
(747,680,o),
(601,680,cs),
(214,680,ls),
(104,680,o),
(50,626,o),
(50,516,cs),
(50,483,ls),
(50,474,o),
(55,469,o),
(64,469,cs),
(193,469,ls),
(202,469,o),
(206,474,o),
(206,483,cs),
(206,500,ls),
(206,517,o),
(213,524,o),
(230,524,cs),
(572,524,ls),
(604,524,o),
(629,498,o),
(629,466,cs),
(629,433,o),
(604,409,o),
(572,409,cs),
(357,409,ls),
(349,409,o),
(344,404,o),
(344,395,cs),
(344,335,l)
);
}
);
width = 873;
}
);
unicode = 51;
},
{
glyphname = four;
kernLeft = "4";
lastChange = "2023-03-30 15:12:28 +0000";
layers = (
{
layerId = m01;
shapes = (
{
closed = 1;
nodes = (
(723,0,ls),
(732,0,o),
(737,5,o),
(737,14,cs),
(737,666,ls),
(737,675,o),
(732,679,o),
(723,679,cs),
(457,679,ls),
(450,679,o),
(444,677,o),
(440,673,cs),
(57,332,ls),
(53,327,o),
(50,322,o),
(50,315,cs),
(50,148,ls),
(50,139,o),
(55,134,o),
(64,134,cs),
(822,134,ls),
(831,134,o),
(835,139,o),
(835,148,cs),
(835,263,ls),
(835,272,o),
(831,277,o),
(822,277,cs),
(220,277,l),
(220,258,l),
(540,543,l),
(486,523,l),
(597,523,l),
(567,554,l),
(567,14,ls),
(567,5,o),
(572,0,o),
(580,0,cs)
);
}
);
width = 885;
}
);
unicode = 52;
},
{
glyphname = five;
lastChange = "2023-03-30 15:12:28 +0000";
layers = (
{
layerId = m01;
shapes = (
{
closed = 1;
nodes = (
(648,0,ls),
(755,0,o),
(835,44,o),
(835,180,cs),
(835,237,ls),
(835,345,o),
(757,418,o),
(650,418,cs),
(240,418,ls),
(232,418,o),
(227,423,o),
(227,432,cs),
(227,522,l),
(788,522,ls),
(797,522,o),
(801,527,o),
(801,536,cs),
(801,665,ls),
(801,674,o),
(797,679,o),
(788,679,cs),
(70,679,ls),
(62,679,o),
(57,674,o),
(57,665,cs),
(57,427,ls),
(57,311,o),
(123,262,o),
(226,262,cs),
(641,262,ls),
(659,262,o),
(665,256,o),
(665,237,cs),
(665,180,ls),
(665,163,o),
(659,156,o),
(639,156,cs),
(245,156,ls),
(227,156,o),
(220,163,o),
(220,183,cs),
(220,184,ls),
(220,192,o),
(215,197,o),
(206,197,cs),
(64,197,ls),
(55,197,o),
(50,192,o),
(50,184,cs),
(50,164,ls),
(50,39,o),
(125,0,o),
(220,0,cs)
);
}
);
width = 885;
}
);
unicode = 53;
},
{
glyphname = six;
lastChange = "2023-03-30 15:12:28 +0000";
layers = (
{
layerId = m01;
shapes = (
{
closed = 1;
nodes = (
(624,0,ls),
(753,0,o),
(850,54,o),
(850,218,cs),
(850,337,o),
(763,418,o),
(647,418,c),
(233,418,l),
(181,418,o),
(135,402,o),
(100,374,c),
(220,224,l),
(220,254,o),
(238,271,o),
(278,271,c),
(602,271,l),
(646,271,o),
(660,257,o),
(660,214,cs),
(660,171,o),
(646,156,o),
(602,156,cs),
(295,156,ls),
(239,156,o),
(220,173,o),
(220,224,cs),
(220,460,ls),
(220,496,o),
(248,524,o),
(284,524,cs),
(634,524,ls),
(659,524,o),
(674,509,o),
(674,483,cs),
(674,474,o),
(678,469,o),
(687,469,cs),
(816,469,ls),
(825,469,o),
(830,474,o),
(830,483,cs),
(830,500,ls),
(830,621,o),
(770,680,o),
(650,680,cs),
(269,680,ls),
(122,680,o),
(50,609,o),
(50,462,cs),
(50,218,ls),
(50,54,o),
(106,0,o),
(276,0,cs)
);
}
);
width = 900;
}
);
unicode = 54;
},
{
glyphname = seven;
kernRight = "7";
lastChange = "2023-03-30 15:12:28 +0000";
layers = (
{
layerId = m01;
shapes = (
{
closed = 1;
nodes = (
(376,-2,ls),
(383,-2,o),
(389,1,o),
(393,6,cs),
(803,511,ls),
(808,517,o),
(810,522,o),
(810,528,cs),
(810,664,ls),
(810,673,o),
(805,678,o),
(796,678,cs),
(64,678,ls),
(55,678,o),
(50,673,o),
(50,664,cs),
(50,535,ls),
(50,526,o),
(55,522,o),
(64,522,cs),
(640,522,l),
(640,571,l),
(188,14,ls),
(181,5,o),
(185,-2,o),
(196,-2,cs)
);
}
);
width = 860;
}
);
unicode = 55;
},
{
glyphname = eight;
lastChange = "2023-03-30 15:12:28 +0000";
layers = (
{
layerId = m01;
shapes = (
{
closed = 1;
nodes = (
(652,0,ls),
(797,0,o),
(853,48,o),
(853,173,cs),
(853,303,o),
(803,347,o),
(653,347,cs),
(250,347,ls),
(100,347,o),
(50,303,o),
(50,173,cs),
(50,48,o),
(106,0,o),
(251,0,cs)
);
},
{
closed = 1;
nodes = (
(234,156,o),
(220,171,o),
(220,216,cs),
(220,258,o),
(234,273,o),
(278,273,cs),
(625,273,ls),
(669,273,o),
(683,258,o),
(683,216,cs),
(683,171,o),
(669,156,o),
(625,156,cs),
(278,156,ls)
);
},
{
closed = 1;
nodes = (
(255,409,o),
(240,423,o),
(240,466,cs),
(240,509,o),
(255,524,o),
(298,524,cs),
(605,524,ls),
(648,524,o),
(663,509,o),
(663,466,cs),
(663,423,o),
(648,409,o),
(605,409,cs),
(298,409,ls)
);
},
{
closed = 1;
nodes = (
(633,335,ls),
(783,335,o),
(833,377,o),
(833,503,cs),
(833,631,o),
(777,680,o),
(631,680,cs),
(272,680,ls),
(126,680,o),
(70,631,o),
(70,503,cs),
(70,377,o),
(120,335,o),
(270,335,cs)
);
}
);
width = 903;
}
);
unicode = 56;
},
{
glyphname = nine;
lastChange = "2023-03-30 15:12:28 +0000";
layers = (
{
layerId = m01;
shapes = (
{
closed = 1;
nodes = (
(778,0,o),
(850,71,o),
(850,218,cs),
(850,462,ls),
(850,626,o),
(794,680,o),
(624,680,cs),
(276,680,ls),
(147,680,o),
(50,626,o),
(50,462,cs),
(50,343,o),
(137,262,o),
(253,262,c),
(667,262,l),
(719,262,o),
(765,278,o),
(800,306,c),
(680,456,l),
(680,426,o),
(663,409,o),
(623,409,c),
(298,409,l),
(255,409,o),
(240,423,o),
(240,466,cs),
(240,509,o),
(255,524,o),
(298,524,cs),
(605,524,ls),
(661,524,o),
(680,507,o),
(680,456,cs),
(680,220,ls),
(680,184,o),
(652,156,o),
(616,156,cs),
(266,156,ls),
(241,156,o),
(227,171,o),
(227,197,cs),
(227,206,o),
(222,211,o),
(213,211,cs),
(84,211,ls),
(75,211,o),
(70,206,o),
(70,197,cs),
(70,180,ls),
(70,59,o),
(130,0,o),
(251,0,cs),
(631,0,ls)
);
}
);
width = 900;
}
);
unicode = 57;
},
{
glyphname = one.ss01;
kernLeft = "1";
kernRight = "1";
lastChange = "2023-03-30 15:12:28 +0000";
layers = (
{
layerId = m01;
shapes = (
{
closed = 1;
nodes = (
(480,1,ls),
(489,1,o),
(493,6,o),
(493,15,cs),
(492,666,ls),
(492,675,o),
(487,680,o),
(478,680,cs),
(258,680,ls),
(251,680,o),
(247,678,o),
(242,673,cs),
(55,487,ls),
(48,480,o),
(49,474,o),
(55,468,cs),
(155,375,ls),
(161,369,o),
(168,370,o),
(174,376,cs),
(344,545,l),
(322,554,l),
(323,15,ls),
(323,6,o),
(328,1,o),
(337,1,cs)
);
}
);
width = 543;
}
);
},
{
glyphname = period;
lastChange = "2023-03-30 15:12:28 +0000";
layers = (
{
layerId = m01;
shapes = (
{
closed = 1;
nodes = (
(193,0,ls),
(202,0,o),
(206,5,o),
(206,14,cs),
(206,143,ls),
(206,152,o),
(202,156,o),
(193,156,cs),
(64,156,ls),
(55,156,o),
(50,152,o),
(50,143,cs),
(50,14,ls),
(50,5,o),
(55,0,o),
(64,0,cs)
);
}
);
width = 256;
}
);
unicode = 46;
},
{
glyphname = comma;
lastChange = "2023-03-30 15:12:28 +0000";
layers = (
{
layerId = m01;
shapes = (
{
closed = 1;
nodes = (
(200,-82,ls),
(205,-76,o),
(206,-72,o),
(206,-65,cs),
(206,98,ls),
(206,107,o),
(202,111,o),
(193,111,cs),
(64,111,ls),
(55,111,o),
(50,107,o),
(50,98,cs),
(50,-31,ls),
(50,-40,o),
(53,-45,o),
(64,-45,cs),
(115,-45,ls),
(123,-45,o),
(128,-50,o),
(128,-59,cs),
(128,-129,ls),
(128,-142,o),
(137,-144,o),
(145,-136,cs)
);
}
);
width = 256;
}
);
unicode = 44;
},
{
glyphname = colon;
lastChange = "2023-03-30 15:12:28 +0000";
layers = (
{
layerId = m01;
shapes = (
{
closed = 1;
nodes = (
(193,0,ls),
(202,0,o),
(206,5,o),
(206,14,cs),
(206,143,ls),
(206,152,o),
(202,156,o),
(193,156,cs),
(64,156,ls),
(55,156,o),
(50,152,o),
(50,143,cs),
(50,14,ls),
(50,5,o),
(55,0,o),
(64,0,cs)
);
},
{
closed = 1;
nodes = (
(193,313,ls),
(202,313,o),
(206,318,o),
(206,326,cs),
(206,456,ls),
(206,464,o),
(202,469,o),
(193,469,cs),
(64,469,ls),
(55,469,o),
(50,464,o),
(50,456,cs),
(50,326,ls),
(50,318,o),
(55,313,o),
(64,313,cs)
);
}
);
width = 256;
}
);
unicode = 58;
},
{
glyphname = semicolon;
lastChange = "2023-03-30 15:12:28 +0000";
layers = (
{
layerId = m01;
shapes = (
{
closed = 1;
nodes = (
(200,-82,ls),
(205,-76,o),
(206,-72,o),
(206,-65,cs),
(206,98,ls),
(206,107,o),
(202,111,o),
(193,111,cs),
(64,111,ls),
(55,111,o),
(50,107,o),
(50,98,cs),
(50,-31,ls),
(50,-40,o),
(53,-45,o),
(64,-45,cs),
(115,-45,ls),
(123,-45,o),
(128,-50,o),
(128,-59,cs),
(128,-129,ls),
(128,-142,o),
(137,-144,o),
(145,-136,cs)
);
},
{
closed = 1;
nodes = (
(193,268,ls),
(202,268,o),
(206,272,o),
(206,281,cs),
(206,411,ls),
(206,419,o),
(202,424,o),
(193,424,cs),
(64,424,ls),
(55,424,o),
(50,419,o),
(50,411,cs),
(50,281,ls),
(50,272,o),
(55,268,o),
(64,268,cs)
);
}
);
width = 256;
}
);
unicode = 59;
},
{
glyphname = ellipsis;
lastChange = "2023-03-30 15:12:28 +0000";
layers = (
{
layerId = m01;
shapes = (
{
closed = 1;
nodes = (
(193,0,ls),
(202,0,o),
(206,5,o),
(206,14,cs),
(206,143,ls),
(206,152,o),
(202,156,o),
(193,156,cs),
(64,156,ls),
(55,156,o),
(50,152,o),
(50,143,cs),
(50,14,ls),
(50,5,o),
(55,0,o),
(64,0,cs)
);
},
{
closed = 1;
nodes = (
(434,0,ls),
(443,0,o),
(448,5,o),
(448,14,cs),
(448,143,ls),
(448,152,o),
(443,156,o),
(434,156,cs),
(305,156,ls),
(296,156,o),
(291,152,o),
(291,143,cs),
(291,14,ls),
(291,5,o),
(296,0,o),
(305,0,cs)
);
},
{
closed = 1;
nodes = (
(676,0,ls),
(684,0,o),
(689,5,o),
(689,14,cs),
(689,143,ls),
(689,152,o),
(684,156,o),
(676,156,cs),
(546,156,ls),
(538,156,o),
(533,152,o),
(533,143,cs),
(533,14,ls),
(533,5,o),
(538,0,o),
(546,0,cs)
);
}
);
width = 739;
}
);
unicode = 8230;
},
{
glyphname = hyphen;
kernLeft = "-";
kernRight = "-";
lastChange = "2023-03-30 15:12:28 +0000";
layers = (
{
layerId = m01;
shapes = (
{
closed = 1;
nodes = (
(308,272,ls),
(317,272,o),
(322,277,o),
(322,286,cs),
(322,394,ls),
(322,403,o),
(317,408,o),
(308,408,cs),
(64,408,ls),
(55,408,o),
(50,403,o),
(50,394,cs),
(50,286,ls),
(50,277,o),
(55,272,o),
(64,272,cs)
);
}
);
width = 372;
}
);
unicode = 45;
},
{
glyphname = ampersand;
lastChange = "2023-03-30 15:12:28 +0000";
layers = (
{
layerId = m01;
shapes = (
{
closed = 1;
nodes = (
(237,415,ls),
(129,415,o),
(50,348,o),
(50,234,cs),
(50,212,ls),
(50,62,o),
(118,-4,o),
(274,-4,cs),
(577,-4,ls),
(752,-4,o),
(866,98,o),
(866,279,cs),
(866,328,ls),
(866,336,o),
(861,341,o),
(852,341,cs),
(710,341,ls),
(701,341,o),
(696,336,o),
(696,328,cs),
(696,211,ls),
(696,164,o),
(684,153,o),
(641,153,cs),
(284,153,ls),
(239,153,o),
(213,179,o),
(213,223,cs),
(213,258,ls),
(213,294,o),
(232,313,o),
(268,313,cs),
(310,313,l),
(310,415,l)
);
},
{
closed = 1;
nodes = (
(335,417,ls),
(300,436,o),
(281,452,o),
(281,479,cs),
(281,504,o),
(302,520,o),
(346,520,cs),
(577,520,ls),
(609,520,o),
(618,505,o),
(621,479,cs),
(621,470,o),
(627,466,o),
(635,466,cs),
(778,466,ls),
(786,466,o),
(791,470,o),
(791,480,cs),
(786,627,o),
(695,676,o),
(584,676,cs),
(346,676,ls),
(190,676,o),
(113,595,o),
(113,510,cs),
(113,433,o),
(135,373,o),
(255,306,cs),
(825,-9,ls),
(833,-13,o),
(839,-12,o),
(844,-4,cs),
(898,90,ls),
(902,97,o),
(901,103,o),
(893,108,cs)
);
}
);
width = 950;
}
);
unicode = 38;
},
{
glyphname = dieresiscomb;
lastChange = "2023-03-30 15:12:28 +0000";
layers = (
{
anchors = (
{
name = _top;
pos = (276,680);
}
);
layerId = m01;
shapes = (
{
closed = 1;
nodes = (
(461,799,o),
(500,837,o),
(500,884,cs),
(500,930,o),
(461,969,o),
(415,969,cs),
(368,969,o),
(330,930,o),
(330,884,cs),
(330,837,o),
(368,799,o),
(415,799,cs)
);
},
{
closed = 1;
nodes = (
(181,799,o),
(220,837,o),
(220,884,cs),
(220,930,o),
(181,969,o),
(135,969,cs),
(88,969,o),
(50,930,o),
(50,884,cs),
(50,837,o),
(88,799,o),
(135,799,cs)
);
}
);
width = 550;
}
);
unicode = 776;
},
{
glyphname = dotaccentcomb;
lastChange = "2023-03-30 15:12:28 +0000";
layers = (
{
anchors = (
{
name = _top;
pos = (135,680);
}
);
layerId = m01;
shapes = (
{
closed = 1;
nodes = (
(181,799,o),
(220,837,o),
(220,884,cs),
(220,930,o),
(181,969,o),
(135,969,cs),
(88,969,o),
(50,930,o),
(50,884,cs),
(50,837,o),
(88,799,o),
(135,799,cs)
);
}
);
width = 270;
}
);
unicode = 775;
},
{
glyphname = gravecomb;
lastChange = "2023-03-30 15:12:28 +0000";
layers = (
{
anchors = (
{
name = _top;
pos = (233,680);
}
);
layerId = m01;
shapes = (
{
closed = 1;
nodes = (
(299,786,ls),
(309,786,o),
(313,793,o),
(308,802,cs),
(214,980,ls),
(210,987,o),
(205,990,o),
(198,990,cs),
(62,990,ls),
(50,990,o),
(46,982,o),
(55,973,cs),
(229,793,ls),
(234,787,o),
(239,786,o),
(246,786,cs)
);
}
);
width = 360;
}
);
unicode = 768;
},
{
glyphname = acutecomb;
lastChange = "2023-03-30 15:12:28 +0000";
layers = (
{
anchors = (
{
name = _top;
pos = (117,680);
}
);
layerId = m01;
shapes = (
{
closed = 1;
nodes = (
(115,786,ls),
(121,786,o),
(127,787,o),
(132,793,cs),
(306,973,ls),
(314,982,o),
(310,990,o),
(299,990,cs),
(163,990,ls),
(155,990,o),
(150,987,o),
(147,980,cs),
(52,802,ls),
(47,793,o),
(51,786,o),
(62,786,cs)
);
}
);
width = 360;
}
);
unicode = 769;
},
{
glyphname = hungarumlautcomb;
lastChange = "2023-03-30 15:12:28 +0000";
layers = (
{
anchors = (
{
name = _top;
pos = (220,680);
}
);
layerId = m01;
shapes = (
{
closed = 1;
nodes = (
(88,786,ls),
(95,786,o),
(101,789,o),
(105,794,cs),
(242,974,ls),
(249,983,o),
(245,990,o),
(234,990,cs),
(170,990,ls),
(162,990,o),
(157,987,o),
(154,980,cs),
(53,802,ls),
(47,793,o),
(52,786,o),
(62,786,cs)
);
},
{
closed = 1;
nodes = (
(306,786,ls),
(313,786,o),
(318,789,o),
(322,794,cs),
(460,974,ls),
(466,983,o),
(462,990,o),
(451,990,cs),
(387,990,ls),
(380,990,o),
(375,987,o),
(371,980,cs),
(271,802,ls),
(265,793,o),
(270,786,o),
(280,786,cs)
);
}
);
width = 513;
}
);
unicode = 779;
},
{
glyphname = caroncomb.alt;
lastChange = "2023-03-30 15:12:28 +0000";
layers = (
{
anchors = (
{
name = _top;
pos = (128,680);
}
);
layerId = m01;
shapes = (
{
closed = 1;
nodes = (
(200,806,ls),
(205,812,o),
(206,816,o),
(206,823,cs),
(206,986,ls),
(206,995,o),
(202,999,o),
(193,999,cs),
(64,999,ls),
(55,999,o),
(50,995,o),
(50,986,cs),
(50,857,ls),
(50,848,o),
(53,843,o),
(64,843,cs),
(115,843,ls),
(123,843,o),
(128,838,o),
(128,829,cs),
(128,759,ls),
(128,746,o),
(137,744,o),
(145,752,cs)
);
}
);
width = 256;
}
);
},
{
glyphname = circumflexcomb;
lastChange = "2023-03-30 15:12:28 +0000";
layers = (
{
anchors = (
{
name = _top;
pos = (241,680);
}
);
layerId = m01;
shapes = (
{
closed = 1;
nodes = (
(90,810,ls),
(96,810,o),
(101,811,o),
(106,815,cs),
(268,914,l),
(215,914,l),
(376,815,ls),
(381,811,o),
(386,810,o),
(392,810,cs),
(421,810,ls),
(432,810,o),
(436,818,o),
(428,827,cs),
(310,965,ls),
(306,970,o),
(300,973,o),
(293,973,cs),
(189,973,ls),
(182,973,o),
(177,970,o),
(172,965,cs),
(54,827,ls),
(47,818,o),
(50,810,o),
(62,810,cs)
);
}
);
width = 482;
}
);
unicode = 770;
},
{
glyphname = caroncomb;
lastChange = "2023-03-30 15:12:28 +0000";
layers = (
{
anchors = (
{
name = _top;
pos = (241,680);
}
);
layerId = m01;
shapes = (
{
closed = 1;
nodes = (
(293,810,ls),
(300,810,o),
(306,812,o),
(310,817,cs),
(428,956,ls),
(436,964,o),
(432,973,o),
(421,973,cs),
(392,973,ls),
(386,973,o),
(381,971,o),
(376,968,cs),
(215,868,l),
(268,868,l),
(106,968,ls),
(101,971,o),
(96,973,o),
(90,973,cs),
(62,973,ls),
(50,973,o),
(47,964,o),
(54,956,cs),
(172,817,ls),
(177,812,o),
(182,810,o),
(189,810,cs)
);
}
);
width = 482;
}
);
unicode = 780;
},
{
glyphname = brevecomb;
lastChange = "2023-03-30 15:12:28 +0000";
layers = (
{
anchors = (
{
name = _top;
pos = (282,680);
}
);
layerId = m01;
shapes = (
{
closed = 1;
nodes = (
(389,787,o),
(472,835,o),
(510,922,cs),
(517,937,o),
(513,948,o),
(502,954,cs),
(491,959,o),
(480,955,o),
(470,944,cs),
(440,911,o),
(378,870,o),
(282,870,cs),
(186,870,o),
(124,911,o),
(94,944,cs),
(83,955,o),
(73,959,o),
(62,954,cs),
(51,948,o),
(47,937,o),
(53,922,cs),
(92,835,o),
(175,787,o),
(282,787,cs)
);
}
);
width = 563;
}
);
unicode = 774;
},
{
glyphname = ringcomb;
lastChange = "2023-03-30 15:12:28 +0000";
layers = (
{
anchors = (
{
name = _top;
pos = (186,680);
}
);
layerId = m01;
shapes = (
{
closed = 1;
nodes = (
(261,748,o),
(322,809,o),
(322,884,cs),
(322,959,o),
(261,1020,o),
(186,1020,cs),
(111,1020,o),
(50,959,o),
(50,884,cs),
(50,809,o),
(111,748,o),
(186,748,cs)
);
},
{
closed = 1;
nodes = (
(144,809,o),
(111,842,o),
(111,884,cs),
(111,926,o),
(144,959,o),
(186,959,cs),
(228,959,o),
(261,926,o),
(261,884,cs),
(261,842,o),
(228,809,o),
(186,809,cs)
);
}
);
width = 372;
}
);
unicode = 778;
},
{
glyphname = tildecomb;
lastChange = "2023-03-30 15:12:28 +0000";
layers = (
{
anchors = (
{
name = _top;
pos = (270,680);
}
);
layerId = m01;
shapes = (
{
closed = 1;
nodes = (
(383,768,o),
(429,786,o),
(461,809,cs),
(485,826,o),
(489,836,o),
(489,846,cs),
(489,860,o),
(478,872,o),
(463,872,cs),
(457,872,o),
(449,870,o),
(442,865,cs),
(427,855,o),
(414,852,o),
(395,852,cs),
(343,853,o),
(315,901,o),
(218,901,cs),
(157,901,o),
(111,883,o),
(79,858,cs),
(55,841,o),
(50,831,o),
(50,821,cs),
(50,807,o),
(62,795,o),
(76,795,cs),
(83,795,o),
(89,797,o),
(97,802,cs),
(114,814,o),
(127,817,o),
(148,816,cs),
(198,816,o),
(224,768,o),
(323,768,cs)
);
}
);
width = 539;
}
);
unicode = 771;
},
{
glyphname = macroncomb;
lastChange = "2023-03-30 15:12:28 +0000";
layers = (
{
anchors = (
{
name = _top;
pos = (271,680);
}
);
layerId = m01;
shapes = (
{
closed = 1;
nodes = (
(478,806,ls),
(487,806,o),
(492,811,o),
(492,820,cs),
(492,881,ls),
(492,890,o),
(487,894,o),
(478,894,cs),
(64,894,ls),
(55,894,o),
(50,890,o),
(50,881,cs),
(50,820,ls),
(50,811,o),
(55,806,o),
(64,806,cs)
);
}
);
width = 542;
}
);
unicode = 772;
},
{
glyphname = commaturnedabovecomb;
lastChange = "2023-03-30 15:12:28 +0000";
layers = (
{
anchors = (
{
name = _top;
pos = (128,680);
}
);
layerId = m01;
shapes = (
{
closed = 1;
nodes = (
(193,746,ls),
(202,746,o),
(206,751,o),
(206,760,cs),
(206,889,ls),
(206,898,o),
(203,902,o),
(193,902,cs),
(142,902,ls),
(133,902,o),
(128,907,o),
(128,916,cs),
(128,987,ls),
(128,999,o),
(119,1002,o),
(111,994,cs),
(57,939,ls),
(51,934,o),
(50,930,o),
(50,923,cs),
(50,760,ls),
(50,751,o),
(55,746,o),
(64,746,cs)
);
}
);
width = 256;
}
);
unicode = 786;
},
{
glyphname = commaaccentcomb;
lastChange = "2023-03-30 15:12:28 +0000";
layers = (
{
anchors = (
{
name = _bottom;
pos = (135,0);
}
);
layerId = m01;
shapes = (
{
closed = 1;
nodes = (
(200,-278,ls),
(205,-272,o),
(206,-268,o),
(206,-261,cs),
(206,-98,ls),
(206,-89,o),
(202,-85,o),
(193,-85,cs),
(64,-85,ls),
(55,-85,o),
(50,-89,o),
(50,-98,cs),
(50,-227,ls),
(50,-236,o),
(53,-241,o),
(64,-241,cs),
(115,-241,ls),
(123,-241,o),
(128,-246,o),
(128,-255,cs),
(128,-325,ls),
(128,-338,o),
(137,-340,o),
(145,-332,cs)
);
}
);
width = 256;
}
);
unicode = 806;
},
{
glyphname = cedillacomb;
lastChange = "2023-03-30 15:12:28 +0000";
layers = (
{
anchors = (
{
name = _bottom;
pos = (140,0);
}
);
layerId = m01;
shapes = (
{
closed = 1;
nodes = (
(239,-226,ls),
(283,-226,o),
(307,-202,o),
(307,-159,cs),
(307,-123,ls),
(307,-80,o),
(283,-55,o),
(239,-55,cs),
(144,-55,l),
(174,-86,l),
(174,34,l),
(106,34,l),
(106,-106,ls),
(106,-117,o),
(113,-124,o),
(124,-124,cs),
(269,-124,l),
(238,-93,l),
(238,-189,l),
(269,-158,l),
(64,-158,ls),
(55,-158,o),
(50,-163,o),
(50,-172,cs),
(50,-212,ls),
(50,-221,o),
(55,-226,o),
(64,-226,cs)
);
}
);
width = 357;
}
);
unicode = 807;
},
{
glyphname = ogonekcomb;
lastChange = "2023-03-30 19:26:33 +0000";
layers = (
{
anchors = (
{
name = _bottom;
pos = (191,0);
}
);
layerId = m01;
shapes = (
{
closed = 1;
nodes = (
(244,-128,l),
(214,-158,o),
(168,-158,o),
(138,-128,cs),
(108,-98,o),
(108,-52,o),
(138,-22,cs),
(153,-7,o),
(172,1,o),
(191,0,c),
(192,61,l),
(156,61,o),
(122,48,o),
(95,21,cs),
(42,-32,o),
(42,-118,o),
(95,-171,cs),
(148,-224,o),
(234,-224,o),
(287,-171,c)
);
}
);
width = 338;
}
);
unicode = 808;
},
